<?xml version="1.0" standalone="no"?>
<!DOCTYPE svg PUBLIC "-//W3C//DTD SVG 20010904//EN"
 "http://www.w3.org/TR/2001/REC-SVG-20010904/DTD/svg10.dtd">
<svg version="1.0" xmlns="http://www.w3.org/2000/svg"
 width="1136.000000pt" height="1136.000000pt" viewBox="0 0 1136.000000 1136.000000"
 preserveAspectRatio="xMidYMid meet">
<metadata>
Created by potrace 1.16, written by Peter Selinger 2001-2019
</metadata>
<g transform="translate(0.000000,1136.000000) scale(0.100000,-0.100000)"
fill="#000000" stroke="none">
<path d="M2065 7214 c-124 -22 -320 -90 -433 -151 -292 -155 -510 -396 -647
-711 -154 -357 -155 -794 -1 -1164 188 -454 600 -785 1086 -874 214 -39 577
-14 725 51 17 8 66 28 110 46 44 18 91 40 105 49 14 8 42 25 63 35 46 24 193
134 260 196 61 55 171 185 224 264 59 87 137 248 166 341 65 207 71 245 72
464 0 192 -2 212 -28 315 -36 144 -57 205 -68 205 -5 0 -9 -4 -9 -9 0 -5 -7
-17 -16 -25 -19 -19 -53 -15 -101 14 -20 11 -37 19 -39 17 -2 -2 9 -44 26 -93
42 -128 63 -259 63 -409 1 -193 -24 -317 -103 -514 -23 -60 -129 -242 -166
-287 l-23 -29 -1 523 0 522 -70 0 -70 0 -70 -72 -69 -73 -1 -557 c0 -334 -4
-567 -10 -582 -8 -22 -133 -125 -151 -126 -3 0 -9 219 -13 488 -8 499 -10 569
-18 577 -2 3 -62 -55 -131 -129 l-127 -134 0 -441 c0 -413 -1 -441 -17 -442
-10 0 -48 -3 -85 -8 l-68 -7 0 382 0 382 -137 136 -138 137 -3 -520 c-1 -321
-6 -521 -12 -521 -5 0 -44 5 -86 11 l-77 12 7 570 7 571 -27 -25 c-15 -13 -80
-78 -145 -144 l-119 -120 0 -357 c0 -197 -3 -358 -7 -358 -3 0 -20 11 -37 23
-17 13 -52 36 -77 51 l-46 26 5 225 c3 124 3 225 0 225 -3 0 -56 -52 -119
-116 l-114 -115 -22 28 c-12 15 -29 41 -38 58 l-16 30 391 395 390 395 216
-220 217 -220 528 535 528 535 73 -72 73 -73 23 88 c12 48 36 150 52 227 17
77 42 188 57 247 15 59 25 110 22 112 -4 4 -166 -29 -214 -44 -17 -6 -124 -30
-239 -55 -115 -24 -211 -47 -215 -50 -3 -4 8 -19 24 -34 17 -16 50 -49 74 -74
l44 -46 -224 -228 c-465 -473 -594 -603 -604 -603 -5 0 -107 97 -226 216
l-215 215 -455 -462 -454 -462 -23 94 c-20 80 -24 121 -25 274 -1 189 6 238
64 425 28 90 110 250 175 340 54 75 151 181 212 233 68 58 213 145 313 189
155 68 261 90 459 96 261 7 436 -30 660 -139 90 -45 95 -46 108 -28 7 10 19
16 27 13 9 -4 15 0 15 8 0 21 33 48 58 48 29 0 28 8 -5 34 -118 93 -377 198
-567 231 -113 19 -390 19 -501 -1z"/>
<path d="M5234 6776 c-52 -23 -74 -54 -74 -104 0 -59 49 -112 104 -112 51 0
85 19 106 59 31 62 12 119 -52 152 -44 22 -44 22 -84 5z"/>
<path d="M8548 6777 c-42 -20 -67 -47 -74 -84 -13 -71 42 -133 119 -133 75 0
128 91 93 159 -28 54 -89 80 -138 58z"/>
<path d="M8140 6581 l0 -174 -22 20 c-13 11 -45 32 -73 47 -42 22 -63 26 -135
26 -72 0 -93 -4 -140 -27 -75 -38 -121 -87 -166 -179 -38 -76 -39 -81 -39
-183 0 -98 3 -111 32 -173 68 -144 166 -211 308 -212 94 0 155 24 205 80 l30
35 0 -51 0 -50 100 0 100 0 0 504 0 505 -100 3 -100 3 0 -174z m-54 -292 c19
-18 39 -49 44 -69 14 -51 12 -185 -4 -223 -45 -109 -198 -141 -287 -60 -54 49
-73 105 -67 198 8 114 56 177 149 193 71 12 125 0 165 -39z"/>
<path d="M4476 6742 c-3 -5 -23 -58 -45 -118 -36 -99 -64 -172 -208 -544 -82
-213 -123 -323 -123 -331 0 -5 49 -9 109 -9 l109 0 12 38 c7 20 26 70 42 110
l30 72 198 0 198 0 28 -82 c48 -147 37 -138 164 -138 121 0 125 2 95 61 -9 16
-33 78 -55 137 -22 59 -65 172 -96 252 -31 80 -72 186 -91 235 -18 50 -49 126
-67 170 -18 44 -39 97 -46 118 l-12 37 -118 0 c-65 0 -121 -4 -124 -8z m218
-506 c14 -35 26 -70 26 -78 0 -10 -26 -13 -122 -11 -68 1 -122 5 -121 10 2 11
98 271 113 308 12 30 13 29 45 -67 18 -54 45 -126 59 -162z"/>
<path d="M5450 6661 l0 -89 66 -7 c36 -4 106 -4 155 0 l89 7 0 -416 0 -416
110 0 110 0 2 411 3 410 143 0 142 0 0 95 0 94 -410 0 -410 0 0 -89z"/>
<path d="M6600 6484 c-42 -18 -76 -49 -98 -89 l-17 -30 -5 60 -5 60 -95 0 -95
0 0 -370 0 -370 98 0 99 0 -1 190 c-2 223 9 275 64 324 38 33 82 45 150 39
l45 -3 0 102 0 103 -52 0 c-29 -1 -69 -8 -88 -16z"/>
<path d="M6983 6482 c-107 -38 -160 -94 -177 -189 l-5 -33 94 0 c93 0 95 0
109 28 19 37 55 52 122 52 65 0 105 -18 122 -55 30 -65 8 -79 -158 -105 -74
-11 -156 -28 -183 -36 -85 -28 -137 -102 -137 -194 0 -133 105 -223 260 -224
90 0 141 15 197 60 l42 34 3 -37 3 -38 95 -3 95 -3 -3 263 c-3 299 -10 338
-70 402 -61 64 -129 89 -252 93 -83 3 -116 0 -157 -15z m275 -462 c-5 -72 -36
-111 -107 -135 -97 -32 -199 26 -172 98 15 38 36 48 146 67 58 9 108 20 112
24 18 18 25 1 21 -54z"/>
<path d="M9129 6480 c-19 -10 -50 -32 -68 -49 -18 -17 -35 -31 -36 -31 -2 0
-3 19 -2 43 l2 42 -97 3 -98 3 0 -376 0 -375 99 0 99 0 4 243 c3 232 4 244 26
279 41 65 151 87 217 44 57 -38 60 -49 63 -318 l3 -248 100 0 100 0 -3 288 -3
287 -31 55 c-33 58 -85 101 -145 119 -60 18 -188 13 -230 -9z"/>
<path d="M9884 6489 c-51 -15 -126 -70 -165 -122 -98 -131 -99 -355 -2 -489
106 -146 354 -180 462 -64 14 14 28 26 31 26 9 0 2 -85 -12 -138 -22 -88 -130
-133 -239 -100 -36 10 -55 24 -87 63 -11 13 -30 15 -103 12 -48 -1 -91 -6 -94
-9 -15 -15 22 -94 65 -138 70 -72 135 -93 285 -94 140 -1 192 13 270 72 59 45
88 93 110 182 13 54 15 124 13 430 l-3 365 -97 3 -98 3 0 -41 c0 -47 -8 -50
-41 -14 -41 45 -95 64 -184 63 -44 0 -94 -5 -111 -10z m206 -160 c84 -19 130
-92 130 -205 0 -146 -95 -232 -230 -209 -87 15 -140 94 -140 210 0 116 39 177
127 201 60 16 58 16 113 3z"/>
<path d="M5177 6483 c-4 -3 -7 -172 -7 -375 l0 -368 100 0 100 0 0 375 0 375
-93 0 c-52 0 -97 -3 -100 -7z"/>
<path d="M8487 6483 c-4 -3 -7 -172 -7 -375 l0 -368 100 0 100 0 0 375 0 375
-93 0 c-52 0 -97 -3 -100 -7z"/>
<path d="M5064 5550 c-51 -20 -70 -100 -39 -160 19 -37 43 -50 95 -50 34 0 48
6 76 34 37 37 45 82 22 131 -21 47 -96 69 -154 45z"/>
<path d="M4422 5530 c-82 -11 -156 -46 -210 -99 -60 -59 -82 -110 -82 -196 0
-84 28 -151 86 -207 55 -52 116 -76 264 -103 70 -13 141 -30 158 -39 89 -46
79 -151 -18 -190 -47 -18 -137 -21 -195 -5 -42 12 -105 67 -105 93 0 14 -15
16 -106 16 l-106 0 7 -32 c27 -130 135 -228 285 -259 79 -16 231 -6 302 21 68
25 150 96 180 154 29 56 36 171 14 229 -36 96 -142 165 -297 193 -141 25 -194
41 -228 70 -26 22 -31 33 -31 70 0 56 30 87 100 104 97 23 188 -6 232 -75 l23
-35 98 0 c111 0 109 -2 76 85 -25 68 -54 104 -119 145 -86 55 -203 76 -328 60z"/>
<path d="M7860 5025 l0 -505 100 0 100 0 0 505 0 505 -100 0 -100 0 0 -505z"/>
<path d="M5589 5266 c-141 -41 -227 -136 -256 -285 -28 -142 5 -267 93 -355
65 -65 123 -90 219 -94 109 -5 158 9 206 61 l39 42 0 -61 c0 -66 -17 -119 -47
-146 -70 -64 -213 -62 -274 3 -26 28 -30 29 -124 29 -95 0 -96 0 -89 -22 26
-87 102 -165 187 -195 71 -24 261 -24 330 1 110 40 170 101 204 212 16 52 18
100 18 429 l0 370 -97 3 -98 3 0 -41 c0 -22 -3 -40 -6 -40 -4 0 -24 15 -45 34
-60 55 -173 77 -260 52z m218 -176 c123 -75 122 -309 -2 -372 -102 -52 -222
-16 -261 78 -17 39 -18 161 -3 201 14 37 57 82 94 99 46 20 134 18 172 -6z"/>
<path d="M6585 5271 c-47 -12 -111 -48 -133 -76 -11 -14 -23 -25 -26 -25 -3 0
-6 20 -6 45 l0 45 -95 0 -95 0 0 -370 0 -370 99 0 100 0 3 243 c3 214 5 246
21 270 28 43 75 67 130 67 59 0 102 -21 127 -63 18 -29 20 -52 20 -274 l0
-243 106 0 105 0 -3 278 -3 277 -28 58 c-35 71 -78 104 -165 128 -69 20 -107
22 -157 10z"/>
<path d="M7275 5261 c-75 -22 -121 -45 -153 -79 -30 -32 -61 -98 -62 -129 0
-22 3 -23 98 -23 l98 0 11 30 c22 59 140 81 204 37 37 -25 62 -67 53 -90 -8
-22 -71 -45 -139 -52 -183 -18 -247 -38 -296 -92 -73 -79 -66 -217 15 -291
104 -96 305 -94 395 2 33 35 41 33 41 -14 l0 -40 98 0 97 0 -2 87 c-2 49 -4
171 -6 273 -3 167 -5 189 -24 226 -49 94 -101 132 -215 159 -81 19 -138 18
-213 -4z m242 -514 c-22 -52 -78 -90 -141 -95 -106 -9 -170 62 -116 130 19 25
94 47 164 49 17 0 47 6 66 12 l35 12 3 -36 c2 -21 -3 -53 -11 -72z"/>
<path d="M8400 5262 c-84 -22 -127 -48 -167 -100 -60 -78 -66 -160 -18 -234
37 -56 94 -84 225 -108 63 -12 130 -29 148 -37 97 -46 45 -143 -76 -143 -72 0
-132 34 -153 88 -8 21 -14 22 -105 22 l-96 0 6 -31 c17 -84 79 -157 164 -191
79 -31 261 -33 341 -3 137 50 205 185 152 301 -30 66 -83 98 -211 129 -36 9
-93 23 -128 32 -99 23 -132 78 -74 123 23 19 37 21 101 18 68 -3 75 -6 102
-36 16 -18 29 -39 29 -47 0 -12 18 -15 96 -15 l96 0 -7 33 c-11 48 -53 114
-91 143 -41 32 -174 74 -229 73 -22 0 -69 -8 -105 -17z"/>
<path d="M5020 4890 l0 -370 100 0 100 0 0 370 0 370 -100 0 -100 0 0 -370z"/>
</g>
</svg>
